<?xml version="1.0" encoding="iso-8859-1"?>
<!-- Generator: Adobe Illustrator 24.2.3, SVG Export Plug-In . SVG Version: 6.00 Build 0)  -->
<svg version="1.1" id="port" xmlns="http://www.w3.org/2000/svg" xmlns:xlink="http://www.w3.org/1999/xlink" x="0px" y="0px"
	 viewBox="0 0 1920 1080" style="enable-background:new 0 0 1920 1080;" xml:space="preserve">
<style type="text/css">
	.st0{fill:#FFFFFF;stroke:#000000;stroke-miterlimit:10;}
	.st1{
		fill:none;
		stroke:#000000;
		stroke-dasharray:1600;
		stroke-dashoffset:1600;
		animation:dash 3s linear forwards;
	}
	#path_x5F_5{
		animation:dash 2s linear forwards;
	}
	@keyframes dash{
		0%{stroke-dashoffset:1600;fill:white;}
		100%{stroke-dashoffset:0;}
	}
</style>
<path class="st0" d="M623.128,523.298"/>
<g id="container">
	<path id="path_x5F_9" class="st1" d="M135.394,426.101H275.46c41.639,0,76.159,24.378,76.159,67.529
		c0,48.772-34.139,75.029-79.153,75.029h-77.29v90.044c0,18.391,8.248,27.769,39.011,27.769v9.379h-98.292v-9.379
		c27.754,0,35.636-9.379,35.636-27.769V459.11c0-18.009-7.798-16.493-35.552-16.493l-0.084-16.516 M195.176,559.281h70.905
		c39.775,0,59.647-35.269,59.647-65.65c0-30.015-20.254-58.151-59.266-58.151h-44.648c-18.391,0-26.639,5.621-26.639,23.63V559.281z
		"/>
	<path id="path_x5F_8" class="st1" d="M384.016,695.851v-9.379c15.015,0,24.76-4.873,24.76-19.506V551.781
		c0-13.136-3.758-17.26-22.881-17.26l-1.879-5.621l47.275-18.391v46.527c23.263-19.888,52.148-46.527,76.908-46.527
		c10.891,0,19.506,9.012,19.506,17.642c0,8.615-8.615,17.245-19.506,17.245c-12.372,0-15-10.127-23.63-10.127
		c-10.891,0-34.139,19.521-53.278,35.269v96.429c0,14.633,5.621,19.506,25.142,19.506v9.379H384.016z"/>
	<path id="path_x5F_7" class="st1" d="M737.166,608.434c0,48.39-27.021,93.42-85.553,93.42c-58.899,0-85.538-45.03-85.538-93.42
		c0-48.023,26.639-94.168,85.538-94.168C710.145,514.266,737.166,560.411,737.166,608.434z M590.468,608.434
		c0,43.517,18.757,84.408,61.144,84.408c42.021,0,60.793-40.89,60.793-84.408c0-43.517-18.773-85.171-60.793-85.171
		C609.226,523.263,590.468,564.917,590.468,608.434z"/>
	<path id="path_x5F_6" class="st1" d="M775.169,529.266v-7.5c25.875-2.245,41.257-21.384,43.136-65.284h7.882v61.908h50.651v10.876
		h-50.651v135.44c0,13.885,9.012,21.018,24.394,21.018c11.624,0,24.012-8.264,33.39-19.506l4.491,3.376
		c-12.372,22.881-28.136,32.26-48.023,32.26c-21.385,0-36.766-13.503-36.766-42.402V529.266H775.169z"/>
	<path id="path_x5F_5" class="st1" d="M917.437,695.851v-9.379c30.381,0,35.636-6.003,35.636-27.769V459.491
		c0-15.763-5.254-24.012-35.636-24.012v-9.379h194.339l27.021,61.526l-5.636,2.994c-15.382-22.5-43.135-55.141-90.792-55.141
		h-39.393c-17.627,0-26.257,8.248-26.257,24.012v89.662h54.775c24.76,0,42.021-3.758,42.021-45.396h8.997v105.426h-8.997
		c0-38.263-17.26-49.902-42.402-49.902h-54.393v99.423c0,21.766,8.63,27.769,39.011,27.769v9.379H917.437z"/>
	<path id="path_x5F_4" class="st1" d="M1346.792,608.434c0,48.39-27.021,93.42-85.553,93.42c-58.899,0-85.538-45.03-85.538-93.42
		c0-48.023,26.639-94.168,85.538-94.168C1319.771,514.266,1346.792,560.411,1346.792,608.434z M1200.094,608.434
		c0,43.517,18.757,84.408,61.144,84.408c42.021,0,60.793-40.89,60.793-84.408c0-43.517-18.772-85.171-60.793-85.171
		C1218.852,523.263,1200.094,564.917,1200.094,608.434z"/>
	<path id="path_x5F_3" class="st1" d="M1390.416,695.851v-9.379c18.391,0,24.76-7.133,24.76-22.881V462.867
		c0-11.257-5.621-17.642-24.76-17.642l-1.497-5.254l48.772-17.245v240.866c0,15.748,7.5,22.881,26.257,22.881v9.379H1390.416z"/>
	<path id="path_x5F_2" class="st1" d="M1500.042,695.851v-9.379c17.245,0,24.76-3.376,24.76-18.391V553.66
		c0-9.76-4.124-16.894-25.142-16.894l-1.13-5.621l48.772-16.878v153.816c0,15.015,5.636,18.391,25.142,18.391v9.379H1500.042z
		 M1556.314,438.474c0,9.379-6.751,18.757-19.888,18.757c-13.503,0-19.506-9.379-19.506-18.757s6.003-18.757,19.506-18.757
		C1549.563,419.716,1556.314,429.095,1556.314,438.474z"/>
	<path id="path_x5F_1" class="st1" d="M1784.105,608.434c0,48.39-27.021,93.42-85.553,93.42c-58.899,0-85.538-45.03-85.538-93.42
		c0-48.023,26.639-94.168,85.538-94.168C1757.084,514.266,1784.105,560.411,1784.105,608.434z M1637.407,608.434
		c0,43.517,18.757,84.408,61.144,84.408c42.021,0,60.793-40.89,60.793-84.408c0-43.517-18.772-85.171-60.793-85.171
		C1656.164,523.263,1637.407,564.917,1637.407,608.434z"/>
	<path class="st1" d="M139.298,426.101"/>
</g>
</svg>
