<?xml version="1.0" encoding="iso-8859-1"?>
<!-- Generator: Adobe Illustrator 24.2.3, SVG Export Plug-In . SVG Version: 6.00 Build 0)  -->
<svg version="1.1" id="port" xmlns="http://www.w3.org/2000/svg" xmlns:xlink="http://www.w3.org/1999/xlink" x="0px" y="0px"
	 viewBox="0 0 1920 1080" style="enable-background:new 0 0 1920 1080;" xml:space="preserve">
<style type="text/css">
	.st0{
		fill:none;
		stroke:#333;
		stroke-dasharray:2355;
		stroke-dashoffset:0;
		opacity:0;
		animation:dash 2s 4.5s linear forwards;
		}

	@keyframes dash{
		0%{opacity:1;stroke-dashoffset:2355;stroke:#333;}
		100%{stroke-dashoffset:0;opacity:1;stroke:#333;}
	}
</style>
<g id="container">
	<path id="p9" class="st0" d="M422.59,379.175l1.883-10.757c15.203-2.233,28.204-5.431,39.006-9.585
		c-2.588,11.187-5.385,25.81-8.388,43.866l-11.876,67.316l14.459,1.195c6.703,0.479,14.013-2.069,21.924-7.649
		c7.91-5.578,14.982-15.378,21.217-29.404c6.234-14.022,9.353-29.164,9.353-45.42c0-16.095-3.793-28.843-11.381-38.249
		c-7.587-9.401-19.179-14.104-34.773-14.104c-17.792,0-35.215,6.734-52.275,20.2c-17.06,13.469-30.217,30.681-39.479,51.636
		c-9.262,20.958-13.892,41.636-13.892,62.034c0,10.041,1.203,18.766,3.614,26.177c2.409,7.411,6.703,14.702,12.886,21.873
		c5.132,5.738,7.7,11.318,7.7,16.734c0,3.508-0.843,6.454-2.527,8.844c-1.685,2.39-3.683,3.586-5.996,3.586
		c-6.21,0-12.208-6.454-17.995-19.363c-5.79-12.91-8.682-29.244-8.682-49.006c0-36.176,9.114-69.165,27.343-98.968
		c23.886-39.206,55.943-58.807,96.171-58.807c15.295,0,27.839,3.029,37.636,9.084c9.795,6.059,17.128,14.343,22,24.862
		c4.871,10.519,7.307,21.915,7.307,34.185c0,15.621-3.421,30.958-10.256,46.018c-6.838,15.061-16.912,27.215-30.221,36.455
		c-13.31,9.244-28.109,13.865-44.393,13.865c-2.507,0-6.42-0.239-11.744-0.717l-12.635,74.394
		c-2.092,12.581-4.447,24.997-7.059,37.256c8.156,3.022,15.268,4.53,21.332,4.53c7.634,0,15.842-2.229,24.627-6.693l-1.883,13.387
		c-8.164,3.346-15.071,5.02-20.721,5.02c-5.441,0-13.397-0.877-23.861-2.629c-8.373-1.595-15.174-2.39-20.407-2.39
		c-10.15,0-20.564,1.83-31.237,5.498l1.886-12.67c10.887-2.708,18.319-6.612,22.297-11.713c5.652-7.172,10.256-21.593,13.816-43.269
		l23.699-143.193c1.046-6.694,1.569-11.392,1.569-14.104c0-2.547-0.68-4.818-2.04-6.813c-1.361-1.991-2.983-2.988-4.867-2.988
		C424.996,378.697,423.95,378.859,422.59,379.175z"/>
	<path id="p8" class="st0" d="M595.718,409.52c9.154,0,17.417,3.232,24.791,9.697c7.373,6.465,13.094,15.694,17.163,27.684
		c4.067,11.993,6.103,25.943,6.103,41.857c0,20.779-3.67,41.389-11.006,61.833c-7.339,20.447-16.31,35.864-26.916,46.25
		c-10.608,10.39-22.376,15.583-35.307,15.583c-14.893,0-26.935-7.071-36.124-21.219c-9.191-14.145-13.785-32.765-13.785-55.865
		c0-22.102,3.668-43.458,11.006-64.071c7.336-20.61,16.346-36.056,27.025-46.334C569.347,414.659,581.697,409.52,595.718,409.52z
		 M587.763,421.455c-8.428,0-16.182,3.79-23.266,11.366c-7.083,7.579-12.877,19.414-17.381,35.509
		c-4.505,16.095-6.756,34.76-6.756,56c0,24.337,3.523,43.113,10.57,56.331c7.046,13.22,15.837,19.828,26.371,19.828
		c7.846,0,15.273-3.927,22.285-11.78c7.01-7.854,12.785-20.214,17.326-37.084c4.54-16.87,6.811-36.255,6.811-58.157
		c0-22.674-3.47-40.348-10.407-53.014C606.379,427.789,597.86,421.455,587.763,421.455z"/>
	<path id="p7" class="st0" d="M712.138,513.128l-14.65,88.025c3.478,0.775,6.269,1.16,8.371,1.16c3.187,0,7.138-0.829,11.849-2.487
		l-1.088,8.123c-4.863,1.546-8.638,2.321-11.322,2.321c-2.831,0-7.005-0.389-12.52-1.16c-4.863-0.775-8.891-1.16-12.084-1.16
		c-5.807,0-12.52,1.268-20.139,3.813l1.635-9.283c7.985-3.092,13.177-6.134,15.572-9.118c3.63-4.75,6.424-13.096,8.385-25.032
		l15.236-92.667c1.886-11.824,2.83-18.786,2.83-20.887c0-1.99-0.454-3.481-1.36-4.476c-0.907-0.994-2.704-1.434-5.387-1.326
		l1.414-7.957c7.311-0.109,16.07-2.15,26.277-6.121c-0.874,4.202-2.001,10.39-3.383,18.564l-8.183,48.893
		c3.489,1.106,6.433,1.658,8.833,1.658c9.087,0,16.867-4.833,23.337-14.505c6.47-9.669,9.707-21.136,9.707-34.398
		c0-10.278-2.595-18.732-7.783-25.363c-5.19-6.631-12.246-9.946-21.169-9.946c-11.394,0-22.533,4.202-33.417,12.599
		c-10.885,8.4-19.049,18.815-24.491,31.248c-5.442,12.433-8.163,25.446-8.163,39.04c0,10.278,2.796,19.121,8.391,26.523
		c2.833,3.647,4.577,6.299,5.231,7.957s0.981,3.427,0.981,5.305c0,2.321-0.567,4.339-1.698,6.05
		c-1.132,1.715-2.501,2.569-4.107,2.569c-3.944,0-7.448-3.481-10.513-10.443c-3.943-9.06-5.913-20.224-5.913-33.486
		c0-17.017,3.086-32.877,9.262-47.577c6.174-14.697,15.528-26.855,28.06-36.47c12.532-9.615,25.734-14.422,39.611-14.422
		c12.93,0,23.573,3.704,31.929,11.106c8.353,7.406,12.532,18.346,12.532,32.823c0,13.593-3.827,26.249-11.483,37.962
		c-7.655,11.716-18.193,19.23-31.617,22.545c3.338,10.169,5.477,17.021,6.421,20.556c1.523,5.968,3.845,16.025,6.964,30.17
		c7.334,33.137,14.92,56.471,22.763,70.014c5.81,9.906,12.091,14.862,18.844,14.862c6.97,0,11.435-4.782,13.396-14.339
		c1.162-6.043,2.251-9.778,3.268-11.207c1.379-1.979,2.94-2.966,4.684-2.966c1.742,0,3.211,0.937,4.41,2.818
		c1.198,1.878,1.798,4.144,1.798,6.797c0,6.851-2.471,13.37-7.408,19.561c-4.938,6.187-11.293,9.283-19.062,9.283
		c-7.046,0-13.781-2.593-20.207-7.773c-6.428-5.186-12.673-13.676-18.736-25.474c-6.064-11.801-11.347-25.97-15.849-42.511
		c-2.248-8.289-5.547-23.482-9.898-45.587c-2.611-13.482-4.241-21.551-4.893-24.202l-2.682-0.331
		C714.281,512.797,713.353,512.908,712.138,513.128z"/>
	<path id="p6" class="st0" d="M873.594,598.501l-1.525,9.449c-5.013,1.657-9.118,2.487-12.314,2.487
		c-3.051,0-8.101-0.497-15.147-1.492c-5.304-0.663-10.063-0.994-14.275-0.994c-7.265,0-14.748,0.994-22.448,2.984l1.525-9.118
		c7.337-1.103,12.676-3.424,16.019-6.962c2.397-2.541,4.449-6.88,6.156-13.013c1.707-6.134,5.575-27.544,11.605-64.237
		l13.949-87.859l0.762-4.144c-4.288-0.331-7.519-0.497-9.698-0.497c-13.441,0-24.101,2.215-31.983,6.643
		c-7.884,4.429-13.803,10.85-17.762,19.264c-3.961,8.413-5.939,17.492-5.939,27.233c0,3.435,0.398,6.59,1.198,9.465
		c0.58,1.995,2.18,5.206,4.794,9.633c2.469,4.098,3.705,7.861,3.705,11.294c0,2.988-0.727,5.535-2.18,7.638
		c-1.454,2.103-3.198,3.156-5.231,3.156c-3.051,0-5.522-2.209-7.41-6.631c-2.762-6.52-4.141-14.808-4.141-24.866
		c0-13.482,2.742-26.578,8.227-39.288c5.484-12.708,13.022-22.545,22.612-29.507c9.589-6.962,21.249-10.444,34.98-10.444
		c6.538,0,16.962,1.438,31.275,4.31c10.169,1.99,17.544,2.984,22.121,2.984c4.577,0,7.809-1.16,9.699-3.481
		c1.888-2.321,2.833-5.413,2.833-9.283c0-0.772-0.109-2.321-0.327-4.641c-0.218-2.098-0.326-3.481-0.326-4.144
		c0-2.984,0.653-5.471,1.962-7.46c1.307-1.99,2.869-2.984,4.685-2.984c2.18,0,3.978,1.218,5.394,3.647
		c1.417,2.432,2.125,5.693,2.125,9.781c0,8.4-2.939,15.639-8.817,21.716c-5.877,6.079-15.71,9.118-29.497,9.118
		c-4.934,0-10.195-0.331-15.782-0.994c-0.729,3.978-3.022,17.463-6.88,40.448l-9.503,57.358l-5.787,34.978l-6.007,39.951
		c4.867,0.886,8.898,1.326,12.096,1.326C863.204,601.319,868.29,600.381,873.594,598.501z"/>
	<path id="p5" class="st0" d="M1106.107,385.152h-8.486c1.78-13.387,2.67-21.993,2.67-25.818c0-5.259-1.204-9.163-3.611-11.713
		c-2.405-2.547-6.958-3.825-13.653-3.825l-10.044,0.239l-3.293-0.239h-31.387c-0.631,3.668-2.311,12.991-5.036,27.969
		c-5.667,30.92-9.966,56.26-12.902,76.019h30.608c7.43,0,12.242-1.113,14.443-3.346c2.195-2.23,4.025-7.889,5.493-16.973h8.486
		c-3.249,20.08-6.078,41.039-8.486,62.871h-8.645c0.731-9.085,1.1-14.421,1.1-16.017c0-3.824-1.257-6.693-3.768-8.606
		c-1.467-1.113-5.444-1.83-11.932-2.151h-29.984c-3.035,22.152-7.013,46.058-11.931,71.715
		c-4.918,25.662-9.156,45.502-12.711,59.525c8.363,2.073,15.837,3.108,22.424,3.108c4.285,0,8.519-0.479,12.701-1.434l-2.671,13.626
		c-3.039,0.477-5.868,0.717-8.486,0.717c-2.306,0-9.534-0.561-21.686-1.673c-7.227-0.8-13.357-1.195-18.385-1.195
		c-10.163,0-21.005,1.434-32.528,4.303l1.886-13.148c9.323-3.026,15.479-6.215,18.464-9.563c2.986-3.346,5.265-7.41,6.836-12.192
		c3.245-9.719,9.323-39.84,18.229-90.362l24.043-143.193c-14.04,0.639-26.322,5.42-36.85,14.343
		c-10.529,8.927-18.911,20.917-25.142,35.978c-6.234,15.061-9.35,30.323-9.35,45.779c0,6.215,0.523,12.591,1.571,19.124
		c0.523,3.668,1.989,8.926,4.4,15.777c3.037,8.449,4.557,14.344,4.557,17.69s-0.891,6.256-2.672,8.725
		c-1.783,2.473-4.086,3.706-6.914,3.706c-4.191,0-7.597-3.346-10.214-10.041c-3.562-8.923-5.343-21.593-5.343-38.009
		c0-32.033,8.223-61.516,24.672-88.45c16.446-26.774,45.498-40.161,72.423-40.161h52.976c6.704,0,14.088-0.635,22.156-1.912
		c2.409-0.317,7.594-1.991,15.558-5.02C1110.35,354.635,1107.152,375.911,1106.107,385.152z"/>
	<path id="p4" class="st0" d="M1176.414,409.52c9.154,0,17.416,3.232,24.791,9.697c7.373,6.465,13.094,15.694,17.163,27.684
		c4.068,11.993,6.103,25.943,6.103,41.857c0,20.779-3.669,41.389-11.006,61.833c-7.338,20.447-16.31,35.864-26.916,46.25
		c-10.607,10.39-22.376,15.583-35.306,15.583c-14.894,0-26.935-7.071-36.124-21.219c-9.191-14.145-13.785-32.765-13.785-55.865
		c0-22.102,3.667-43.458,11.005-64.071c7.337-20.61,16.347-36.056,27.025-46.334C1150.041,414.659,1162.392,409.52,1176.414,409.52z
		 M1168.459,421.455c-8.428,0-16.182,3.79-23.266,11.366c-7.083,7.579-12.877,19.414-17.381,35.509
		c-4.506,16.095-6.756,34.76-6.756,56c0,24.337,3.522,43.113,10.569,56.331c7.046,13.22,15.837,19.828,26.371,19.828
		c7.845,0,15.273-3.927,22.284-11.78c7.01-7.854,12.786-20.214,17.326-37.084c4.54-16.87,6.811-36.255,6.811-58.157
		c0-22.674-3.47-40.348-10.407-53.014C1187.074,427.789,1178.556,421.455,1168.459,421.455z"/>
	<path id="p3" class="st0" d="M1223.054,610.768l1.307-8.952c7.629-2.209,12.731-4.75,15.311-7.625
		c2.578-2.872,4.904-7.982,6.975-15.334c2.07-7.348,4.885-22.516,8.444-45.505c4.722-30.391,9.007-52.273,12.858-65.646
		c5.885-20.113,13.204-35.032,21.958-44.759c8.754-9.724,17.598-14.588,26.534-14.588c5.738,0,10.569,2.212,14.493,6.631
		c3.923,4.422,5.884,9.009,5.884,13.759c0,2.653-0.599,4.919-1.796,6.797c-1.199,1.881-2.63,2.818-4.299,2.818
		c-2.178,0-4.827-2.155-7.946-6.465c-3.485-4.641-6.188-7.68-8.111-9.118c-1.924-1.435-3.792-2.155-5.605-2.155
		c-2.104,0-4.173,0.886-6.204,2.653c-2.832,2.432-5.862,7.046-9.09,13.842c-3.229,6.797-6.584,16.884-10.068,30.254
		c-2.258,9.063-5.136,23.983-8.634,44.759c-5.464,33.046-9.615,54.982-12.456,65.812c-2.034,7.737-4.506,14.148-7.41,19.23
		c10.388-3.424,18.669-5.139,24.845-5.139c3.85,0,7.41,0.36,10.679,1.078c3.27,0.72,8.972,2.515,17.109,5.388
		c7.045,2.544,11.987,3.813,14.82,3.813c2.761,0,5.102-1.303,7.029-3.911c1.924-2.608,2.887-5.577,2.887-8.908
		c0-2.109-0.51-5.049-1.525-8.822c-0.946-3.549-1.416-6.38-1.416-8.488c0-2.997,0.58-5.357,1.743-7.077
		c1.162-1.72,2.688-2.58,4.577-2.58c2.18,0,4.031,1.467,5.557,4.393c1.526,2.929,2.289,6.937,2.289,12.018
		c0,9.615-2.615,17.904-7.846,24.866c-5.231,6.962-12.314,10.443-21.25,10.443c-4.431,0-10.134-0.497-17.109-1.492
		c-23.537-3.207-38.94-4.807-46.203-4.807C1240.707,607.95,1231.262,608.887,1223.054,610.768z"/>
	<path id="p2" class="st0" d="M1447.534,411.841l-1.853,8.952c-8.225,0.775-13.683,2.321-16.375,4.641
		c-1.747,1.549-3.203,3.869-4.367,6.962c-1.379,3.978-5.407,25.089-12.08,63.325c-2.176,12.599-7.727,47.025-16.65,103.276
		c5.084,2.544,11.513,3.647,19.288,3.315l-1.744,7.957c-2.326,0.108-6.975-0.331-13.948-1.326
		c-5.013-0.663-10.861-0.994-17.544-0.994c-9.227,0-17.691,1.049-25.391,3.15l1.307-8.786c7.991-1.878,14.057-4.31,18.198-7.294
		c1.016-0.771,1.815-1.712,2.397-2.818c1.089-1.99,2.27-5.993,3.542-12.018c1.27-6.022,5.612-30.639,13.022-73.851
		c2.18-12.487,6.61-39.785,13.295-81.891c-5.013-0.22-11.153,0.829-18.417,3.15l2.07-9.118c3.051-1.215,6.174-2.072,9.372-2.569
		c3.196-0.497,10.424-0.966,21.685-1.409C1433.875,414.053,1441.939,413.167,1447.534,411.841z"/>
	<path id="p1" class="st0" d="M1524.576,409.52c9.154,0,17.416,3.232,24.791,9.697c7.373,6.465,13.094,15.694,17.163,27.684
		c4.068,11.993,6.103,25.943,6.103,41.857c0,20.779-3.669,41.389-11.006,61.833c-7.338,20.447-16.31,35.864-26.916,46.25
		c-10.607,10.39-22.376,15.583-35.306,15.583c-14.894,0-26.934-7.071-36.124-21.219c-9.191-14.145-13.785-32.765-13.785-55.865
		c0-22.102,3.667-43.458,11.005-64.071c7.337-20.61,16.347-36.056,27.025-46.334C1498.204,414.659,1510.555,409.52,1524.576,409.52z
		 M1516.621,421.455c-8.428,0-16.182,3.79-23.266,11.366c-7.083,7.579-12.877,19.414-17.381,35.509
		c-4.506,16.095-6.756,34.76-6.756,56c0,24.337,3.522,43.113,10.569,56.331c7.046,13.22,15.837,19.828,26.371,19.828
		c7.846,0,15.273-3.927,22.284-11.78c7.01-7.854,12.785-20.214,17.326-37.084c4.54-16.87,6.811-36.255,6.811-58.157
		c0-22.674-3.47-40.348-10.407-53.014S1526.718,421.455,1516.621,421.455z"/>
</g>
</svg>
