<?xml version="1.0" encoding="iso-8859-1"?>
<!-- Generator: Adobe Illustrator 24.2.3, SVG Export Plug-In . SVG Version: 6.00 Build 0)  -->
<svg version="1.1" id="port" xmlns="http://www.w3.org/2000/svg" xmlns:xlink="http://www.w3.org/1999/xlink" x="0px" y="0px"
	 viewBox="0 0 120 50" style="enable-background:new 0 0 120 50;" xml:space="preserve">
<style type="text/css">
	.st0{
		stroke:#333;
		fill:none;
		stroke-dasharray:85;
		stroke-dashoffset:85;
		animation:port 1.5s forwards;
		}
		@keyframes port{
			0%{stroke-dashoffset:85;fill:transparent;}
			80%{stroke:#333;fill:transparent;stroke-dashoffset:0;}
			100%{stroke:#333;stroke-dashoffset:0;fill:#333;}
		}
</style>
<g id="port_x5F_con">
	<path id="port_x5F_con_x5F_p" class="st0" d="M24.624,21.438l0.094-0.352c0.756-0.073,1.402-0.178,1.939-0.313
		c-0.128,0.366-0.268,0.844-0.417,1.434l-0.59,2.2l0.719,0.039c0.333,0.016,0.697-0.067,1.09-0.25
		c0.393-0.182,0.745-0.502,1.055-0.961c0.31-0.458,0.465-0.953,0.465-1.484c0-0.526-0.188-0.942-0.566-1.25
		c-0.377-0.307-0.954-0.461-1.729-0.461c-0.885,0-1.751,0.22-2.599,0.66c-0.848,0.44-1.502,1.003-1.963,1.688
		c-0.46,0.685-0.69,1.361-0.69,2.027c0,0.328,0.06,0.613,0.18,0.855c0.12,0.242,0.333,0.48,0.641,0.715
		c0.255,0.188,0.383,0.37,0.383,0.547c0,0.115-0.042,0.211-0.125,0.289c-0.084,0.078-0.183,0.117-0.298,0.117
		c-0.309,0-0.607-0.211-0.895-0.633c-0.288-0.422-0.432-0.956-0.432-1.602c0-1.182,0.453-2.26,1.359-3.234
		c1.188-1.281,2.781-1.922,4.781-1.922c0.76,0,1.384,0.099,1.871,0.297c0.487,0.198,0.852,0.469,1.094,0.813
		s0.363,0.716,0.363,1.117c0,0.511-0.17,1.012-0.51,1.504s-0.841,0.89-1.502,1.191c-0.662,0.302-1.397,0.453-2.207,0.453
		c-0.125,0-0.319-0.008-0.584-0.023l-0.628,2.432c-0.104,0.411-0.221,0.816-0.351,1.218c0.405,0.099,0.759,0.147,1.061,0.147
		c0.379,0,0.788-0.072,1.224-0.219l-0.093,0.438c-0.406,0.109-0.75,0.164-1.03,0.164c-0.271,0-0.666-0.028-1.187-0.086
		c-0.416-0.052-0.754-0.078-1.015-0.078c-0.504,0-1.022,0.06-1.553,0.18l0.094-0.414c0.541-0.088,0.911-0.216,1.108-0.383
		c0.281-0.234,0.51-0.705,0.687-1.414l1.178-4.68c0.052-0.219,0.078-0.372,0.078-0.461c0-0.083-0.034-0.157-0.102-0.223
		c-0.067-0.065-0.148-0.098-0.242-0.098C24.744,21.423,24.692,21.428,24.624,21.438z"/>
	<path id="port_x5F_con_x5F_o_1_" class="st0" d="M35.384,19.563c0.656,0,1.249,0.152,1.777,0.457
		c0.528,0.305,0.938,0.74,1.23,1.305c0.292,0.565,0.438,1.223,0.438,1.973c0,0.979-0.263,1.951-0.789,2.914
		c-0.526,0.964-1.169,1.69-1.93,2.18c-0.761,0.49-1.604,0.734-2.531,0.734c-1.068,0-1.931-0.333-2.59-1
		c-0.659-0.666-0.988-1.544-0.988-2.633c0-1.042,0.263-2.048,0.789-3.02c0.526-0.971,1.172-1.699,1.938-2.184
		S34.379,19.563,35.384,19.563z M34.814,20.126c-0.604,0-1.16,0.179-1.668,0.536s-0.923,0.915-1.246,1.673
		c-0.323,0.759-0.484,1.638-0.484,2.639c0,1.147,0.252,2.032,0.758,2.655c0.505,0.623,1.135,0.935,1.891,0.935
		c0.563,0,1.095-0.185,1.598-0.555c0.502-0.37,0.917-0.953,1.242-1.748c0.325-0.795,0.488-1.709,0.488-2.741
		c0-1.068-0.249-1.901-0.746-2.498C36.148,20.424,35.538,20.126,34.814,20.126z"/>
	<path id="port_x5F_con_x5F_r" class="st0" d="M43.731,24.446l-1.05,4.148c0.25,0.037,0.449,0.055,0.6,0.055
		c0.229,0,0.512-0.039,0.85-0.117l-0.078,0.383c-0.349,0.073-0.619,0.109-0.812,0.109c-0.203,0-0.502-0.019-0.898-0.055
		c-0.349-0.036-0.637-0.055-0.866-0.055c-0.417,0-0.897,0.06-1.444,0.18l0.117-0.438c0.572-0.146,0.945-0.289,1.116-0.43
		c0.261-0.224,0.461-0.617,0.602-1.18l1.092-4.367c0.135-0.557,0.203-0.885,0.203-0.984c0-0.094-0.032-0.164-0.098-0.211
		c-0.065-0.047-0.193-0.067-0.386-0.063l0.101-0.375c0.524-0.005,1.152-0.102,1.884-0.289c-0.063,0.198-0.144,0.49-0.243,0.875
		l-0.587,2.304c0.25,0.052,0.461,0.078,0.633,0.078c0.651,0,1.209-0.228,1.673-0.684c0.464-0.456,0.696-0.996,0.696-1.621
		c0-0.484-0.186-0.883-0.558-1.195s-0.878-0.469-1.518-0.469c-0.817,0-1.616,0.198-2.396,0.594c-0.78,0.396-1.365,0.887-1.756,1.473
		c-0.39,0.586-0.585,1.199-0.585,1.84c0,0.484,0.2,0.901,0.602,1.25c0.203,0.172,0.328,0.297,0.375,0.375s0.07,0.162,0.07,0.25
		c0,0.109-0.041,0.205-0.122,0.285c-0.082,0.081-0.179,0.121-0.294,0.121c-0.283,0-0.534-0.164-0.754-0.492
		c-0.283-0.427-0.424-0.953-0.424-1.578c0-0.802,0.221-1.549,0.664-2.242c0.442-0.692,1.113-1.266,2.012-1.719s1.845-0.68,2.84-0.68
		c0.927,0,1.69,0.175,2.289,0.523c0.599,0.349,0.898,0.865,0.898,1.547c0,0.641-0.274,1.237-0.823,1.789
		c-0.549,0.552-1.304,0.906-2.267,1.063c0.239,0.479,0.393,0.802,0.46,0.969c0.109,0.281,0.276,0.756,0.5,1.422
		c0.526,1.562,1.07,2.661,1.632,3.3c0.417,0.467,0.867,0.7,1.351,0.7c0.5,0,0.82-0.226,0.96-0.676
		c0.083-0.284,0.162-0.461,0.234-0.528c0.099-0.093,0.21-0.14,0.335-0.14s0.23,0.044,0.316,0.133s0.129,0.195,0.129,0.32
		c0,0.323-0.177,0.63-0.531,0.922s-0.81,0.438-1.366,0.438c-0.505,0-0.988-0.122-1.449-0.366c-0.46-0.244-0.908-0.645-1.343-1.2
		c-0.435-0.557-0.813-1.225-1.137-2.004c-0.161-0.391-0.397-1.106-0.709-2.148c-0.187-0.635-0.304-1.016-0.351-1.141l-0.192-0.016
		C43.884,24.431,43.818,24.436,43.731,24.446z"/>
	<path id="port_x5F_con_x5F_t" class="st0" d="M55.306,28.47l-0.109,0.445c-0.359,0.078-0.654,0.117-0.883,0.117
		c-0.219,0-0.581-0.023-1.086-0.07c-0.38-0.031-0.722-0.047-1.023-0.047c-0.521,0-1.058,0.047-1.609,0.141l0.109-0.43
		c0.526-0.052,0.909-0.161,1.148-0.328c0.172-0.119,0.319-0.324,0.441-0.613c0.122-0.289,0.399-1.298,0.832-3.027l1-4.141
		l0.055-0.195c-0.308-0.016-0.539-0.023-0.695-0.023c-0.964,0-1.728,0.104-2.293,0.313c-0.565,0.209-0.99,0.511-1.273,0.908
		c-0.284,0.396-0.426,0.825-0.426,1.284c0,0.162,0.028,0.311,0.086,0.446c0.042,0.094,0.156,0.246,0.344,0.454
		c0.177,0.193,0.266,0.371,0.266,0.532c0,0.141-0.052,0.261-0.156,0.36c-0.104,0.099-0.229,0.148-0.375,0.148
		c-0.219,0-0.396-0.104-0.531-0.313c-0.198-0.307-0.297-0.698-0.297-1.172c0-0.635,0.196-1.252,0.59-1.852
		c0.393-0.599,0.934-1.063,1.621-1.391s1.523-0.492,2.508-0.492c0.469,0,1.216,0.068,2.242,0.203
		c0.729,0.094,1.258,0.141,1.586,0.141s0.559-0.055,0.695-0.164c0.135-0.109,0.203-0.255,0.203-0.438
		c0-0.036-0.008-0.109-0.023-0.219c-0.016-0.099-0.023-0.164-0.023-0.195c0-0.141,0.047-0.258,0.141-0.352s0.205-0.141,0.336-0.141
		c0.156,0,0.285,0.058,0.387,0.172c0.102,0.115,0.152,0.269,0.152,0.461c0,0.396-0.211,0.737-0.633,1.023
		c-0.422,0.287-1.127,0.43-2.115,0.43c-0.354,0-0.73-0.016-1.131-0.047c-0.052,0.188-0.216,0.823-0.493,1.906l-0.681,2.703
		l-0.415,1.648l-0.431,1.883c0.349,0.042,0.638,0.063,0.867,0.063C54.561,28.603,54.926,28.559,55.306,28.47z"/>
	<path id="port_x5F_con_x5F_f" class="st0" d="M66.213,21.634h-0.422c0.088-0.438,0.133-0.719,0.133-0.844
		c0-0.172-0.061-0.299-0.18-0.383c-0.119-0.083-0.346-0.125-0.68-0.125l-0.498,0.008l-0.164-0.008h-1.561
		c-0.031,0.12-0.115,0.425-0.25,0.914c-0.283,1.011-0.496,1.839-0.643,2.484h1.521c0.369,0,0.609-0.036,0.719-0.109
		c0.109-0.073,0.199-0.258,0.273-0.555h0.422c-0.162,0.656-0.303,1.341-0.422,2.055h-0.43c0.035-0.297,0.055-0.471,0.055-0.523
		c0-0.125-0.063-0.219-0.188-0.281c-0.072-0.036-0.271-0.06-0.594-0.07h-1.49c-0.15,0.724-0.35,1.505-0.594,2.344
		c-0.244,0.839-0.455,1.487-0.631,1.945c0.416,0.068,0.787,0.102,1.113,0.102c0.215,0,0.424-0.016,0.633-0.047l-0.133,0.445
		c-0.152,0.016-0.293,0.023-0.422,0.023c-0.115,0-0.475-0.019-1.078-0.055c-0.359-0.026-0.664-0.039-0.914-0.039
		c-0.506,0-1.045,0.047-1.617,0.141l0.094-0.43c0.463-0.099,0.77-0.203,0.918-0.313s0.262-0.242,0.34-0.398
		c0.16-0.317,0.463-1.302,0.906-2.953l1.195-4.68c-0.699,0.021-1.309,0.177-1.832,0.469c-0.523,0.292-0.941,0.684-1.25,1.176
		c-0.311,0.492-0.465,0.991-0.465,1.496c0,0.203,0.025,0.412,0.078,0.625c0.025,0.12,0.098,0.292,0.219,0.516
		c0.15,0.276,0.227,0.469,0.227,0.578s-0.045,0.205-0.133,0.285c-0.09,0.081-0.203,0.121-0.344,0.121
		c-0.209,0-0.379-0.109-0.508-0.328c-0.178-0.292-0.266-0.706-0.266-1.242c0-1.047,0.408-2.01,1.227-2.891
		c0.816-0.875,1.895-1.313,3.234-1.313h3c0.332,0,0.699-0.021,1.102-0.063c0.119-0.01,0.377-0.065,0.773-0.164
		C66.424,20.637,66.264,21.332,66.213,21.634z"/>
	<path id="port_x5F_con_x5F_0" class="st0" d="M71.861,19.563c0.656,0,1.249,0.152,1.777,0.457s0.938,0.74,1.23,1.305
		c0.292,0.565,0.438,1.223,0.438,1.973c0,0.979-0.263,1.951-0.789,2.914c-0.526,0.964-1.169,1.69-1.93,2.18
		c-0.761,0.49-1.604,0.734-2.531,0.734c-1.067,0-1.931-0.333-2.59-1c-0.659-0.666-0.988-1.544-0.988-2.633
		c0-1.042,0.263-2.048,0.789-3.02c0.526-0.971,1.172-1.699,1.938-2.184S70.856,19.563,71.861,19.563z M71.291,20.126
		c-0.604,0-1.16,0.179-1.668,0.536s-0.923,0.915-1.246,1.673c-0.323,0.759-0.484,1.638-0.484,2.639c0,1.147,0.253,2.032,0.758,2.655
		s1.136,0.935,1.891,0.935c0.563,0,1.095-0.185,1.598-0.555s0.917-0.953,1.242-1.748s0.488-1.709,0.488-2.741
		c0-1.068-0.249-1.901-0.746-2.498C72.626,20.424,72.015,20.126,71.291,20.126z"/>
	<path id="port_x5F_con_x5F_l_1_" class="st0" d="M75.205,29.048l0.094-0.422c0.547-0.104,0.913-0.224,1.098-0.359
		c0.185-0.135,0.352-0.376,0.5-0.723c0.148-0.346,0.351-1.061,0.605-2.145c0.339-1.432,0.646-2.463,0.922-3.094
		c0.422-0.948,0.946-1.651,1.574-2.109c0.628-0.458,1.262-0.688,1.902-0.688c0.411,0,0.758,0.104,1.039,0.313
		c0.281,0.208,0.422,0.425,0.422,0.648c0,0.125-0.043,0.232-0.129,0.32c-0.086,0.089-0.188,0.133-0.309,0.133
		c-0.155,0-0.346-0.102-0.569-0.305c-0.25-0.219-0.443-0.362-0.581-0.43c-0.139-0.067-0.272-0.102-0.402-0.102
		c-0.15,0-0.299,0.042-0.444,0.125c-0.203,0.115-0.421,0.332-0.652,0.652s-0.472,0.796-0.722,1.426
		c-0.162,0.427-0.368,1.13-0.619,2.109c-0.392,1.558-0.689,2.592-0.893,3.102c-0.146,0.365-0.323,0.667-0.531,0.906
		c0.745-0.161,1.339-0.242,1.781-0.242c0.276,0,0.531,0.018,0.766,0.051c0.234,0.034,0.644,0.119,1.227,0.254
		c0.505,0.12,0.859,0.18,1.063,0.18c0.198,0,0.366-0.062,0.504-0.185c0.138-0.122,0.207-0.263,0.207-0.419
		c0-0.1-0.036-0.238-0.109-0.416c-0.067-0.167-0.102-0.301-0.102-0.4c0-0.141,0.042-0.252,0.125-0.333s0.192-0.122,0.328-0.122
		c0.156,0,0.289,0.069,0.398,0.207c0.109,0.139,0.164,0.327,0.164,0.566c0,0.453-0.188,0.844-0.563,1.172s-0.883,0.492-1.523,0.492
		c-0.317,0-0.727-0.023-1.227-0.07c-1.688-0.151-2.792-0.227-3.313-0.227C76.471,28.915,75.794,28.959,75.205,29.048z"/>
	<path id="port_x5F_con_x5F_l" class="st0" d="M91.299,19.673l-0.133,0.422c-0.59,0.037-0.98,0.109-1.174,0.219
		c-0.125,0.073-0.229,0.183-0.313,0.328c-0.099,0.188-0.388,1.183-0.866,2.984c-0.155,0.594-0.554,2.216-1.193,4.867
		c0.364,0.12,0.825,0.172,1.383,0.156l-0.125,0.375c-0.167,0.005-0.5-0.016-1-0.063c-0.359-0.031-0.778-0.047-1.258-0.047
		c-0.661,0-1.269,0.05-1.82,0.148l0.094-0.414c0.573-0.088,1.008-0.203,1.305-0.344c0.073-0.036,0.13-0.08,0.172-0.133
		c0.078-0.094,0.163-0.282,0.254-0.566c0.091-0.283,0.402-1.443,0.934-3.48c0.156-0.588,0.474-1.875,0.953-3.859
		c-0.359-0.01-0.8,0.039-1.32,0.148l0.148-0.43c0.219-0.057,0.442-0.098,0.672-0.121s0.747-0.045,1.555-0.066
		C90.319,19.777,90.897,19.735,91.299,19.673z"/>
	<path id="port_x5F_con_x5F_o" class="st0" d="M96.822,19.563c0.656,0,1.249,0.152,1.777,0.457s0.938,0.74,1.23,1.305
		c0.292,0.565,0.438,1.223,0.438,1.973c0,0.979-0.263,1.951-0.789,2.914c-0.526,0.964-1.169,1.69-1.93,2.18
		c-0.761,0.49-1.604,0.734-2.531,0.734c-1.067,0-1.931-0.333-2.59-1c-0.659-0.666-0.988-1.544-0.988-2.633
		c0-1.042,0.263-2.048,0.789-3.02c0.526-0.971,1.172-1.699,1.938-2.184S95.817,19.563,96.822,19.563z M96.252,20.126
		c-0.604,0-1.16,0.179-1.668,0.536s-0.923,0.915-1.246,1.673c-0.323,0.759-0.484,1.638-0.484,2.639c0,1.147,0.253,2.032,0.758,2.655
		s1.136,0.935,1.891,0.935c0.563,0,1.095-0.185,1.598-0.555s0.917-0.953,1.242-1.748s0.488-1.709,0.488-2.741
		c0-1.068-0.249-1.901-0.746-2.498C97.587,20.424,96.976,20.126,96.252,20.126z"/>
</g>
</svg>
