<?xml version="1.0" encoding="iso-8859-1"?>
<!-- Generator: Adobe Illustrator 24.2.3, SVG Export Plug-In . SVG Version: 6.00 Build 0)  -->
<svg version="1.1" id="publisher" xmlns="http://www.w3.org/2000/svg" xmlns:xlink="http://www.w3.org/1999/xlink" x="0px" y="0px"
	 viewBox="0 0 916.67 43" style="enable-background:new 0 0 916.67 43;" xml:space="preserve">
<style type="text/css">
	.st0{
		stroke:white;
		fill:white;
		stroke-miterlimit:10;
		stroke-dasharray:65;
		stroke-dashoffset:65;
		animation:stroke 1s forwards;
		}
		@keyframes stroke{
			0%{stroke-dashoffset:65;fill:transparent;}
			50%{stroke-dashoffset:0;fill:transparent;}
			100%{stroke-dashoffset:0;fill:white}
		}

</style>
<g id="publisher_x5F_con">
	<path id="publisher_x5F_p" class="st0" d="M392.336,12.725h5.833c3.937,0,6.961,1.392,6.961,5.593c0,4.056-3.048,5.88-6.865,5.88
		h-2.376v6.313h-3.552V12.725z M398.024,21.39c2.448,0,3.625-1.032,3.625-3.072c0-2.064-1.296-2.76-3.745-2.76h-2.016v5.833H398.024
		z"/>
	<path id="publisher_x5F_u" class="st0" d="M407.552,25.18v-6.53h2.369v6.738c0,2.465,0.864,3.298,2.241,3.298
		c1.409,0,2.305-0.833,2.305-3.298v-6.738h2.273v6.53c0,3.938-1.681,5.554-4.578,5.554C409.281,30.733,407.552,29.117,407.552,25.18
		z"/>
	<path id="publisher_x5F_b" class="st0" d="M419.584,18.649h3.921c2.433,0,4.29,0.72,4.29,2.929c0,1.088-0.608,2.208-1.617,2.561
		v0.08c1.28,0.304,2.225,1.2,2.225,2.801c0,2.385-1.985,3.489-4.594,3.489h-4.226V18.649z M423.33,23.483
		c1.504,0,2.161-0.608,2.161-1.553c0-1.041-0.704-1.457-2.129-1.457h-1.408v3.009H423.33z M423.602,28.686
		c1.617,0,2.497-0.576,2.497-1.809c0-1.153-0.864-1.649-2.497-1.649h-1.648v3.458H423.602z"/>
	<path id="publisher_x5F_l" class="st0" d="M430.48,18.649h2.369v9.876h4.818v1.984h-7.187V18.649z"/>
	<path id="publisher_x5F_i" class="st0" d="M439.728,18.649h2.369v11.86h-2.369V18.649z"/>
	<path id="publisher_x5F_s" class="st0" d="M444.224,29.006l1.36-1.633c0.849,0.784,1.969,1.313,3.009,1.313
		c1.232,0,1.889-0.528,1.889-1.36c0-0.881-0.72-1.153-1.776-1.602l-1.585-0.672c-1.2-0.496-2.401-1.457-2.401-3.185
		c0-1.937,1.697-3.425,4.098-3.425c1.376,0,2.753,0.544,3.713,1.521l-1.2,1.489c-0.752-0.625-1.537-0.977-2.513-0.977
		c-1.041,0-1.697,0.464-1.697,1.249c0,0.848,0.833,1.152,1.841,1.553l1.553,0.656c1.44,0.592,2.385,1.504,2.385,3.217
		c0,1.937-1.617,3.585-4.354,3.585C446.96,30.733,445.376,30.109,444.224,29.006z"/>
	<path id="publisher_x5F_h" class="st0" d="M454.991,18.649h2.369v4.674h4.481v-4.674h2.354v11.86h-2.354v-5.122h-4.481v5.122
		h-2.369V18.649z"/>
	<path id="publisher_x5F_e" class="st0" d="M467.104,18.649h7.268v1.985h-4.898v2.737h4.162v1.984h-4.162v3.17h5.074v1.984h-7.443
		V18.649z"/>
	<path id="publisher_x5F_r" class="st0" d="M476.943,18.649h4.13c2.481,0,4.45,0.88,4.45,3.602c0,1.776-0.896,2.881-2.257,3.409
		l2.769,4.85h-2.641l-2.434-4.481h-1.648v4.481h-2.369V18.649z M480.85,24.155c1.521,0,2.368-0.64,2.368-1.904
		c0-1.281-0.848-1.713-2.368-1.713h-1.537v3.617H480.85z"/>
</g>
</svg>
