<?xml version="1.0" encoding="iso-8859-1"?>
<!-- Generator: Adobe Illustrator 24.2.3, SVG Export Plug-In . SVG Version: 6.00 Build 0)  -->
<svg version="1.1" id="&#xB808;&#xC774;&#xC5B4;_1" xmlns="http://www.w3.org/2000/svg" xmlns:xlink="http://www.w3.org/1999/xlink"
	 x="0px" y="0px" viewBox="0 0 512 512" style="enable-background:new 0 0 512 512;" xml:space="preserve">
<style type="text/css">
	.st0{fill:none;stroke:#000000;}
</style>
<g id="Publisher_x5F_con">
	<path id="p" class="st0" d="M172.833,225.63h7.775c5.248,0,9.279,1.856,9.279,7.456c0,5.408-4.063,7.839-9.151,7.839h-3.168v8.416
		h-4.736V225.63z M180.417,237.181c3.264,0,4.832-1.376,4.832-4.096c0-2.752-1.728-3.68-4.991-3.68h-2.688v7.775H180.417z"/>
	<path id="u" class="st0" d="M192.658,244.011v-6.531h2.369v6.739c0,2.465,0.864,3.297,2.241,3.297c1.409,0,2.305-0.833,2.305-3.297
		v-6.739h2.273v6.531c0,3.938-1.681,5.554-4.578,5.554C194.387,249.565,192.658,247.948,192.658,244.011z"/>
	<path id="b" class="st0" d="M204.69,237.48h3.922c2.433,0,4.29,0.72,4.29,2.929c0,1.088-0.608,2.209-1.617,2.561v0.08
		c1.28,0.304,2.225,1.201,2.225,2.801c0,2.385-1.985,3.489-4.594,3.489h-4.226V237.48z M208.436,242.314
		c1.504,0,2.161-0.608,2.161-1.553c0-1.041-0.704-1.457-2.129-1.457h-1.408v3.009H208.436z M208.708,247.516
		c1.617,0,2.497-0.576,2.497-1.809c0-1.153-0.864-1.649-2.497-1.649h-1.648v3.458H208.708z"/>
	<path id="l" class="st0" d="M215.586,237.48h2.369v9.876h4.818v1.985h-7.187V237.48z"/>
	<path id="i" class="st0" d="M224.834,237.48h2.369v11.861h-2.369V237.48z"/>
	<path id="s" class="st0" d="M229.329,247.836l1.36-1.633c0.849,0.784,1.969,1.313,3.009,1.313c1.232,0,1.889-0.528,1.889-1.36
		c0-0.88-0.72-1.153-1.776-1.601l-1.585-0.672c-1.2-0.497-2.401-1.457-2.401-3.186c0-1.937,1.697-3.425,4.098-3.425
		c1.376,0,2.753,0.544,3.713,1.521l-1.2,1.489c-0.752-0.625-1.537-0.977-2.513-0.977c-1.041,0-1.697,0.464-1.697,1.249
		c0,0.848,0.833,1.152,1.841,1.553l1.553,0.656c1.44,0.592,2.385,1.504,2.385,3.217c0,1.937-1.617,3.585-4.354,3.585
		C232.066,249.565,230.481,248.94,229.329,247.836z"/>
	<path id="h" class="st0" d="M240.098,237.48h2.369v4.674h4.481v-4.674h2.353v11.861h-2.353v-5.122h-4.481v5.122h-2.369V237.48z"/>
	<path id="e" class="st0" d="M252.209,237.48h7.267v1.985h-4.898v2.737h4.162v1.984h-4.162v3.169h5.074v1.985h-7.443V237.48z"/>
	<path id="r" class="st0" d="M262.049,237.48h4.13c2.481,0,4.45,0.88,4.45,3.602c0,1.777-0.896,2.881-2.257,3.409l2.769,4.85H268.5
		l-2.433-4.482h-1.648v4.482h-2.369V237.48z M265.955,242.986c1.521,0,2.369-0.64,2.369-1.905c0-1.281-0.848-1.713-2.369-1.713
		h-1.537v3.618H265.955z"/>
</g>
</svg>
